<?xml version="1.0" encoding="utf-8"?>
<!-- Uploaded to: SVG Repo, www.svgrepo.com, Generator: SVG Repo Mixer Tools -->
<svg width="50px" height="50px" viewBox="0 0 1024 1024" class="icon"  version="1.1" xmlns="http://www.w3.org/2000/svg"><path d="M320 768.042667c277.333333-128 256-554.688 256-554.688h42.666667s42.666667 469.354667-189.653334 635.392L320 768.042667z" fill="#795548" /><path d="M256 277.333333c-0.469333-38.613333 14.997333-77.333333 39.978667-107.754666 25.024-30.272 63.125333-53.824 105.365333-60.586667 42.218667-7.146667 84.842667 2.688 118.357333 21.610667 33.728 19.178667 60.608 46.08 77.632 80.384-37.824-5.546667-70.122667-13.333333-100.309333-17.258667-30.101333-4.16-56.853333-4.586667-81.813333-0.533333s-49.472 12.8-75.562667 27.029333C313.450667 234.368 286.784 255.253333 256 277.333333zM874.666667 277.333333l-74.432-37.76c-21.888-10.752-41.642667-18.794667-60.48-23.872-18.858667-5.12-37.546667-7.914667-60.586667-7.872C656.064 207.573333 629.888 211.2 597.333333 213.333333c11.285333-30.570667 33.557333-54.634667 63.296-69.994666 29.504-15.338667 67.754667-19.733333 101.738667-9.877334 34.218667 9.365333 62.549333 30.592 81.834667 55.744 19.050667 25.493333 31.424 55.210667 30.464 88.128z" fill="#388E3C" /><path d="M597.333333 213.333333c-40.042667 21.866667-69.632 41.109333-93.056 60.629334-23.381333 19.477333-39.381333 38.186667-55.125333 59.669333-15.594667 21.461333-30.805333 46.869333-47.317333 76.885333C384.917333 440.448 368.085333 474.282667 341.333333 512c-26.56-37.866667-37.482667-79.936-37.632-123.84 0.32-43.541333 12.885333-90.218667 42.048-129.984 28.458667-39.957333 74.56-69.568 121.749334-77.525333C514.517333 172.821333 562.325333 182.293333 597.333333 213.333333zM810.666667 533.333333c-24.789333-36.010667-41.749333-66.432-57.578667-94.933333a3325.909333 3325.909333 0 0 0-42.773333-76.928c-13.653333-23.253333-26.538667-44.608-43.776-67.797333C649.493333 270.058667 627.178667 245.952 597.333333 213.333333c39.402667-19.989333 84.736-19.242667 125.909334-2.837333 41.216 16.426667 76.437333 49.024 97.834666 86.848a228.714667 228.714667 0 0 1 30.208 120.64c-1.770667 40.554667-12.373333 80.938667-40.618666 115.349333z" fill="#4CAF50" /><path d="M917.333333 789.354667s-21.333333 42.666667-85.333333 42.666666-85.333333-42.666667-85.333333-42.666666-21.333333 42.666667-85.333334 42.666666-85.333333-42.666667-85.333333-42.666666-21.333333 42.666667-85.333333 42.666666-85.333333-42.666667-85.333334-42.666666-21.333333 42.666667-85.333333 42.666666-85.333333-42.666667-85.333333-42.666666-21.333333 42.666667-85.333334 42.666666v85.333334h768v-128z" fill="#2196F3" /><path d="M106.666667 917.333333l576 0.021334s-192-170.666667-576-192V917.333333z" fill="#FFC107" /><path d="M597.333333 213.333333c-85.333333 106.666667-106.666667 341.333333-106.666666 341.333334M597.333333 213.333333c2.453333 39.786667 3.370667 68.714667 1.536 97.856a418.133333 418.133333 0 0 1-13.568 82.858667 368.576 368.576 0 0 1-32.192 80.32C538.24 501.077333 520.234667 527.573333 490.666667 554.666667c-23.488-32.874667-32.448-66.005333-36.522667-98.538667a255.146667 255.146667 0 0 1 7.722667-95.936 244.266667 244.266667 0 0 1 44.650666-88.149333c21.76-26.218667 50.88-51.2 90.816-58.709334z" fill="#8BC34A" /></svg>