<?xml version="1.0" encoding="utf-8"?>
<!-- Uploaded to: SVG Repo, www.svgrepo.com, Generator: SVG Repo Mixer Tools -->
<svg width="50px" height="50px" viewBox="-22.36 0 296.345 296.345" xmlns="http://www.w3.org/2000/svg"><defs><style>.a{fill:#ffffff;}.b{fill:#b5886a;}.c{fill:#211715;}.d{fill:#f4b467;}</style></defs><path class="a" d="M181.057,95.541a8.157,8.157,0,0,1,6.527-1.909,7.7,7.7,0,0,1,5.538,3.682,10.878,10.878,0,0,1,1.14,4.381,32.636,32.636,0,0,1-3.327,17.3,20.732,20.732,0,0,1-5.364,7.039c-1.814,1.447-3.636,2.269-6.271,1.467,0,0-.343-.105-.941-.285-.578,2.274-1.34,4.256-1.682,5.225-2.107,5.338-15.212,26.11-30.741,29.331l-32.5,1.945c-10.208-1.351-19.582-7.419-27.318-16.062a58.668,58.668,0,0,1-11.629-19.763l-1.391.376c-2.979.8-5.254-.787-7.068-2.234a20.732,20.732,0,0,1-5.364-7.039,32.636,32.636,0,0,1-3.327-17.3,10.878,10.878,0,0,1,1.14-4.381,7.7,7.7,0,0,1,5.538-3.682,8.157,8.157,0,0,1,6.527,1.909s.535-47.811,53.424-47.811C182.638,47.73,181.057,95.541,181.057,95.541Z"/><path class="b" d="M65.835,61.335h-.02c-4.455,3.009-14.77,4.4-18.848,4.078A28.287,28.287,0,0,1,33.86,60.741c8.712-4.158,15.641-13.72,17.918-23.164,1.94-8,3.088-16.017,8.216-22.749a32.42,32.42,0,0,1,18.729-11.7A33.884,33.884,0,0,1,98.9,5.167c3.484,1.663,8.1,3.8,10.869,8.612a47.9,47.9,0,0,1,2.475,4.435Z"/><path class="b" d="M147.011,63.556c2.512,8,9.605,16.678,18.271,22.861.573.416,1.161.814,1.75,1.213q1.028.684,2.077,1.306c2.2,1.606,8.1,5.344,11.28,7.226.391-.371.668-.621.668-.621a8.124,8.124,0,0,1,5.683-1.987,58.39,58.39,0,0,0,1.687-18.468c-1.041-23.879-13.419-38.718-25.543-46.915a63.293,63.293,0,0,0-36.829-11.39,66.4,66.4,0,0,0-38.1,11.8c-9.5,6.808-23.223,22.63-24.264,46.509a75,75,0,0,0,1.307,18.469,8.086,8.086,0,0,1,5.554,1.986s1.109,1,2.431,2.2a40.165,40.165,0,0,0,8.8-3.421C95.2,87.6,110.268,75,122.89,66.686c-1.585,4.034-4.865,12.724-2.69,12.363,8.255-.342,19.163-6.563,26.811-15.493"/><path class="c" d="M182.754,97.238a5.682,5.682,0,0,1,7.923.7c1.088,1.4,1.2,3.392,1.272,5.088a29.251,29.251,0,0,1-.35,6.222A29.916,29.916,0,0,1,187.38,120.4c-1.592,2.47-4.168,5.687-7.442,4.781-2.981-.825-4.253,3.805-1.276,4.629,8.415,2.328,13.96-7.529,16.235-14.113a34.5,34.5,0,0,0,1.86-12.455c-.155-4.169-1.128-8.179-4.87-10.534a10.639,10.639,0,0,0-12.527,1.132,2.42,2.42,0,0,0,0,3.394,2.448,2.448,0,0,0,3.394,0Z"/><path class="c" d="M176.692,122.416a24.892,24.892,0,0,1-1.431,6.828c-.241.732-.5,1.458-.763,2.182-.072.2-.153.392-.221.589.267-.772.006-.036-.082.152a49.6,49.6,0,0,1-3.66,6.3,62.354,62.354,0,0,1-14.224,15.651,28.648,28.648,0,0,1-11.013,5.336c-3.018.648-1.741,5.276,1.276,4.628,7.967-1.711,14.755-7.2,20.169-13.05A69.05,69.05,0,0,0,178.143,135a32.054,32.054,0,0,0,3.349-12.583c.112-3.09-4.688-3.085-4.8,0Z"/><path class="c" d="M72.245,93.844a10.672,10.672,0,0,0-11.392-1.726c-3.951,1.766-5.539,5.485-5.91,9.577-.752,8.273,1.74,17.533,7.2,23.892,2.889,3.365,7.02,6.067,11.6,4.994,3.006-.7,1.734-5.333-1.276-4.628-3.187.747-6.306-2.7-7.905-5.044a29.922,29.922,0,0,1-4.92-17.441c.053-1.724.1-3.756,1.094-5.242a5.639,5.639,0,0,1,8.118-.988,2.462,2.462,0,0,0,3.394,0,2.421,2.421,0,0,0,0-3.394Z"/><path class="c" d="M70.1,121c3.373,16.55,14.177,32.193,29.079,40.383a39.691,39.691,0,0,0,13.619,4.65,2.483,2.483,0,0,0,2.952-1.676,2.418,2.418,0,0,0-1.676-2.953c-8-1.105-15.193-5.034-21.179-10.362A57.675,57.675,0,0,1,78.007,130.4a56.89,56.89,0,0,1-3.274-10.675A2.4,2.4,0,0,0,70.1,121Z"/><path class="c" d="M114.314,17a27.757,27.757,0,0,0-5.9-8.714,31.562,31.562,0,0,0-8.8-5.418A35.259,35.259,0,0,0,75.821,1.4,34.283,34.283,0,0,0,56.567,15.566a42.021,42.021,0,0,0-4.818,11.728c-1.077,4.035-1.707,8.215-3.009,12.186-2.635,8.038-8.417,15.455-16.091,19.189-1.691.822-1.426,3.254,0,4.144,5.441,3.4,11.531,5.423,17.989,4.949,5.417-.4,11.753-1.31,16.388-4.355l-1.211.328h.02c3.088,0,3.093-4.8,0-4.8-1.171,0-2.352,1.047-3.376,1.479A27.785,27.785,0,0,1,58.783,61.6a45.494,45.494,0,0,1-7.7,1.324,22.811,22.811,0,0,1-7.336-.431,29.209,29.209,0,0,1-8.673-3.826v4.144c6.859-3.337,12.342-9.406,15.806-16.13,3.681-7.146,4.209-15.2,6.91-22.683A28.676,28.676,0,0,1,72.772,7.659,30.921,30.921,0,0,1,94.212,6a29.356,29.356,0,0,1,9.754,4.777c2.806,2.161,4.74,5.465,6.2,8.645a2.418,2.418,0,0,0,3.283.861A2.455,2.455,0,0,0,114.314,17Z"/><path class="c" d="M189.368,92.946a68.41,68.41,0,0,0,.59-26.329,60.7,60.7,0,0,0-7.467-21.069C175.811,34.136,165.214,25.32,153.169,20a69.22,69.22,0,0,0-49.727-1.915A62.571,62.571,0,0,0,84.133,28.5,60.676,60.676,0,0,0,72.6,41.1c-9.146,13.161-12.483,29.162-11.1,45,.2,2.284.5,4.561.92,6.814A2.423,2.423,0,0,0,65.374,94.6a2.453,2.453,0,0,0,1.676-2.953c-2.773-14.946-.574-30.986,7.157-44.15A58.357,58.357,0,0,1,84.749,34.307q1.262-1.175,2.6-2.268c.209-.171.421-.339.632-.508a3.7,3.7,0,0,1,.315-.242q.805-.606,1.636-1.179a60.2,60.2,0,0,1,9.854-5.488,65.019,65.019,0,0,1,46.445-2.215,59.85,59.85,0,0,1,29.413,21.382c8.624,12.116,11.759,27.489,10.126,42.168a48.117,48.117,0,0,1-1.027,5.713c-.709,3,3.918,4.286,4.628,1.276Z"/><path class="c" d="M144.7,64.194c2.193,6.823,6.6,12.829,11.656,17.828,4.748,4.7,10.346,8.329,15.935,11.929,2.563,1.65,5.143,3.287,7.787,4.805,2.683,1.541,5.1-2.605,2.422-4.144-4.357-2.5-8.422-5.449-12.7-8.064A53.778,53.778,0,0,1,154.314,72.36a34.276,34.276,0,0,1-4.989-9.442c-.942-2.929-5.578-1.677-4.629,1.276Z"/><path class="c" d="M72.7,100.208c3.726-.534,7.3-2.3,10.631-3.987A110.357,110.357,0,0,0,93.3,90.407c6.88-4.44,13.447-9.343,20.075-14.144,3.534-2.561,7.085-5.1,10.727-7.5l-3.525-2.711a79.249,79.249,0,0,0-2.87,8.247c-.6,2.227-1.507,6.161,1.552,7.05,1.334.388,3.122-.07,4.439-.313a28.429,28.429,0,0,0,4.635-1.293,45.063,45.063,0,0,0,10.018-5.233,54.657,54.657,0,0,0,10.358-9.253c2.01-2.327-1.371-5.737-3.4-3.394a48.254,48.254,0,0,1-15.856,12.247,27.367,27.367,0,0,1-7.79,2.424,11.693,11.693,0,0,0-1.523.124c.124-.329,1.473.829,1.635,1.1.056.1.054.437.1.25.02-.081.039-.73.01-.435-.025.258.061-.352.081-.457.109-.566.25-1.127.4-1.683a81.243,81.243,0,0,1,2.833-8.109c.765-1.949-1.861-3.808-3.525-2.71-13.073,8.628-25.056,19-38.879,26.471C79.265,93,75.448,95,71.426,95.58a2.414,2.414,0,0,0-1.676,2.952,2.463,2.463,0,0,0,2.952,1.676Z"/><path class="c" d="M117.131,141.92c2.626,2.571,6.766,3.334,10.293,3.331s7.668-.759,10.3-3.331c2.211-2.164-1.184-5.557-3.394-3.394-.1.1-.566.459-.219.214s-.273.178-.4.256c-.222.137-.452.263-.686.381-.157.079-.317.151-.477.224.3-.138.2-.078-.048.009a13.656,13.656,0,0,1-5.071.841,13.1,13.1,0,0,1-4.979-.806c-.088-.032-.683-.3-.141-.044-.133-.063-.268-.122-.4-.187-.26-.127-.515-.266-.762-.418a5.5,5.5,0,0,1-.55-.372c.031-.059.483.423.139.095-.068-.065-.139-.127-.206-.193-2.209-2.162-5.606,1.229-3.394,3.394Z"/><path class="c" d="M126.9,118.765a49.908,49.908,0,0,1,1.172,5.363l-.086-.638a3.224,3.224,0,0,1,.02.741l.086-.638a1.818,1.818,0,0,1-.081.333l.242-.574a1.446,1.446,0,0,1-.118.215l.375-.486a1.145,1.145,0,0,1-.175.173l.486-.376a3.452,3.452,0,0,1-.425.225l.573-.242a3.065,3.065,0,0,1-.716.209l.638-.086a2.85,2.85,0,0,1-.672,0l.638.086c-.253-.035-.5-.1-.755-.131a2.657,2.657,0,0,0-1.85.242,2.4,2.4,0,0,0-.861,3.283,2.292,2.292,0,0,0,1.435,1.1c.545.074,1.075.214,1.63.238a5.15,5.15,0,0,0,2.363-.556,3.337,3.337,0,0,0,1.871-2.207,5.694,5.694,0,0,0-.026-2.417c-.292-1.728-.691-3.44-1.136-5.135a2.4,2.4,0,1,0-4.628,1.276Z"/><path class="c" d="M98.524,104.761c-.876,2.845-.305,9.391,5.086,9.949,7.125-.043,7.5-7.957,5.106-11.679C106.752,99.985,100.978,98.717,98.524,104.761Z"/><path class="c" d="M155.349,104.761c.876,2.846.305,9.392-5.086,9.949-7.125-.043-7.5-7.958-5.106-11.679C147.121,99.984,152.9,98.718,155.349,104.761Z"/><path class="a" d="M33.953,244.008a16.367,16.367,0,0,0-4.555.818c-6.029,2.966-11.118,1.932-15.431-.145-6.871-3.307-7.956-8.435-7.976-14.3l-.287-.116c-2.413,4.4-3.567,13.407-3.255,16.249.673,6.132,2.105,8.479,5.025,11.86,3.47,4.018,9.283,5.233,14.173,5.14a17.852,17.852,0,0,0,12.245-4.76C33.911,254.579,33.931,249.572,33.953,244.008Z"/><path class="a" d="M248.209,237.209a36.838,36.838,0,0,1,.947,9.3c-.673,6.132-2.105,8.479-5.025,11.86-3.471,4.019-9.283,5.233-14.173,5.14a17.863,17.863,0,0,1-12.3-4.8c-.02-4.167-.04-9.164-.062-14.713a16.392,16.392,0,0,1,4.611.822c6.028,2.966,11.118,1.932,15.431-.145,7.108-3.421,8.025-8.79,7.975-14.91A24.831,24.831,0,0,1,248.209,237.209Z"/><path class="c" d="M37.142,244.518a5.5,5.5,0,0,1,.127,2.215,16.21,16.21,0,0,1-.885,3.373,23.473,23.473,0,0,1-2.829,5.466,3.219,3.219,0,0,1-.481.633,8.89,8.89,0,0,1-.643.659,18.11,18.11,0,0,1-3.247,2.325,15.137,15.137,0,0,1-6.93,1.9c-4.847.207-10.009-.838-13.294-4.663A16.674,16.674,0,0,1,4.8,245.4a35.128,35.128,0,0,1,.759-6.809,25.872,25.872,0,0,1,2.218-7.116c1.453-2.725-2.689-5.153-4.144-2.423C1.161,233.686.182,239.505.011,244.71a21.518,21.518,0,0,0,4.762,14.161c3.988,4.977,9.932,7.006,16.186,7.046a21.653,21.653,0,0,0,9.066-1.785,18.864,18.864,0,0,0,6.58-4.7A26.089,26.089,0,0,0,40.782,252c1.051-2.712,1.808-5.882.988-8.756-.846-2.965-5.479-1.7-4.628,1.276Z"/><path class="c" d="M209.835,243.242a13.357,13.357,0,0,0,.65,7.83,27.991,27.991,0,0,0,3.42,6.922c3.254,4.677,8.882,7.362,14.463,7.839,6,.511,12.98-.908,17.214-5.487a22.2,22.2,0,0,0,6.011-14.341A35.655,35.655,0,0,0,250.8,238a30.519,30.519,0,0,0-2.831-8.944c-1.454-2.727-5.6-.305-4.144,2.423,1.964,3.684,2.722,8.521,2.943,12.731a16.841,16.841,0,0,1-3.159,11.047,13.5,13.5,0,0,1-5.372,4.445,19.2,19.2,0,0,1-6.9,1.4c-4.742.157-9.557-1.261-12.813-4.9a21.374,21.374,0,0,1-3.08-5.483,19.573,19.573,0,0,1-1.038-3.54,5.9,5.9,0,0,1,.05-2.664c.849-2.976-3.781-4.246-4.628-1.276Z"/><path class="d" d="M123.586,163.475c-14.593-9.78-72.1-20.327-87.285-20.674a1.966,1.966,0,0,0-2.016,1.966c-.034,18.082-.337,106.275-.441,123.784a1.988,1.988,0,0,0,1.781,1.961C49.882,271.7,110,287.267,123.609,293.561a5.58,5.58,0,0,0,4.148-.014c13.566-6.39,73.281-22.264,88.124-23.053a1.966,1.966,0,0,0,1.824-1.955c-.1-17.545-.407-105.774-.441-123.8a1.928,1.928,0,0,0-1.921-1.929c-17.254-.124-72.25,11.615-87.609,20.8A4.238,4.238,0,0,1,123.586,163.475Z"/><path class="a" d="M40.79,134.719c11.829.6,66.961,9.9,84.859,25.174,19.064-15.424,65.421-24.411,84.186-25.526a1.018,1.018,0,0,1,1.074,1.021v7.589c-20.761,1.439-68.963,12.134-83.179,20.638a4.24,4.24,0,0,1-4.145-.14c-13.67-9.162-65-19-83.914-20.49v-.047c0-2.088.031-5.511.048-7.217A1.013,1.013,0,0,1,40.79,134.719Z"/><path class="c" d="M42.071,142.938q0-1.944.02-3.889.007-.811.016-1.623c0-.3.025-.607.008-.907-.049-.916.29-.03-.444.31l-1.211.327a22.279,22.279,0,0,1,4.779.364q.7.081,1.4.169l.744.094c.156.021.99.132.426.056q1.8.243,3.59.515c5.824.883,11.62,1.948,17.386,3.15,13.39,2.79,26.826,6.194,39.513,11.374A86.669,86.669,0,0,1,117.033,157c1.337.734,2.65,1.514,3.921,2.358q.842.558,1.655,1.156.176.129.349.26c.568.429-.357-.29.19.15q.406.326.8.662a2.491,2.491,0,0,0,3.394,0,54.345,54.345,0,0,1,6.022-4.072c2.442-1.437,4.969-2.728,7.54-3.919a144.84,144.84,0,0,1,17.32-6.554,254.206,254.206,0,0,1,36.634-8.532c2.917-.463,5.243-.792,8.059-1.119,1.239-.143,2.481-.274,3.724-.386a18.483,18.483,0,0,1,3.527-.205l-1.212-.328c-.86-.406-.372-1.591-.451-.73-.025.275,0,.565,0,.842v6.465c0,3.089,4.8,3.094,4.8,0v-6.559c0-1.357-.056-2.641-1.146-3.648-1.3-1.2-3.155-.837-4.76-.7-6.217.521-12.408,1.447-18.548,2.54-15.129,2.7-30.278,6.452-44.536,12.25-7.206,2.931-14.276,6.367-20.367,11.264h3.394c-4.772-4.044-10.435-6.859-16.164-9.278a176.994,176.994,0,0,0-21.338-7.266,305.309,305.309,0,0,0-40.255-8.374c-2.439-.335-4.883-.657-7.338-.859-1.784-.147-3.579-.057-4.543,1.761-.616,1.161-.4,2.76-.409,4.037-.015,1.574-.027,3.147-.028,4.721,0,3.089,4.8,3.094,4.8,0Z"/><path class="c" d="M124.8,161.4a54.4,54.4,0,0,0-11.853-5.436c-5.5-1.972-11.135-3.58-16.789-5.051-12.489-3.249-25.169-5.83-37.9-7.9-5.193-.844-10.406-1.611-15.639-2.155-1.8-.187-3.613-.35-5.425-.428a4.951,4.951,0,0,0-4.207,1.462,5.418,5.418,0,0,0-1.1,3.856q-.025,12.078-.069,24.156-.055,17.885-.119,35.77-.063,18.016-.133,36.033-.048,12.472-.108,24.945c0,.582-.027,1.167-.009,1.748a4.466,4.466,0,0,0,3.542,4.426c.837.166,1.727.195,2.575.3.4.049-.566-.083.1.014l.543.079q.7.1,1.406.218c4.584.744,9.135,1.707,13.669,2.707,12.074,2.664,24.068,5.712,35.991,8.981,10.112,2.772,20.317,5.556,30.129,9.28q.573.218,1.142.443.285.112.568.228c.109.044.754.314.381.156-.324-.138.5.22.684.3a8.693,8.693,0,0,0,2.765.78,9.063,9.063,0,0,0,4.722-1.01l.438-.192.26-.112c.285-.123-.462.192-.168.072.386-.158.772-.317,1.16-.47,4.15-1.643,8.406-3.026,12.661-4.367,11.789-3.716,23.729-6.976,35.714-10,10.474-2.638,21.046-5.271,31.74-6.865.206-.031.413-.061.619-.09.237-.034.772-.105.211-.032.423-.055.846-.108,1.269-.156.731-.082,1.462-.129,2.194-.194a4.469,4.469,0,0,0,4.331-4.2c.039-.624.008-1.258,0-1.883q-.029-5.138-.049-10.273-.067-15.9-.124-31.8-.069-18.592-.131-37.187-.052-15.775-.1-31.552-.015-5.031-.027-10.06a6.719,6.719,0,0,0-.544-3.308,4.7,4.7,0,0,0-4.488-2.232c-2,.02-4,.163-5.995.345a288.392,288.392,0,0,0-35.917,6.079c-12.219,2.71-24.5,5.76-36.232,10.178-2.191.826-4.366,1.709-6.486,2.7-.863.4-1.717.829-2.552,1.289-.893.493-1.645,1-2.655.395-2.66-1.583-5.077,2.565-2.422,4.145a6.666,6.666,0,0,0,6,.405c.919-.405,1.775-.966,2.673-1.421a55.517,55.517,0,0,1,5.6-2.46c5.251-2.043,10.645-3.717,16.061-5.261a384.212,384.212,0,0,1,38.14-8.719c5.522-.98,10.681-1.8,16.006-2.356,2.1-.223,4.217-.405,6.332-.486q.641-.024,1.282-.034a4.388,4.388,0,0,0,.562,0c-.024,0,.309.005.31,0-.056.18-.447-.3-.415-.288-.216-.062.023-.288-.064.024a1.95,1.95,0,0,0,0,.432c0,.311,0,.623,0,.934q.027,12.086.07,24.17.055,17.568.117,35.135.063,17.766.131,35.532.048,12.456.107,24.912,0,.927.01,1.852a2.284,2.284,0,0,0,0,.37c.07.419-.1.069.083-.013.5-.224.215-.166-.261-.129-1.8.14-3.6.395-5.388.669-4.689.72-9.34,1.683-13.973,2.7-11.993,2.624-23.9,5.685-35.721,8.986-9.881,2.758-19.851,5.547-29.424,9.262q-1.352.524-2.683,1.1c-.313.134-.627.268-.937.411-.1.048-.561.218-.181.091a3.542,3.542,0,0,1-1.135.2,3.479,3.479,0,0,1-1.137-.186c.307.1.024,0-.122-.059-.48-.2-.955-.414-1.435-.615q-1.11-.464-2.234-.89c-4.17-1.587-8.43-2.939-12.692-4.25-11.562-3.556-23.255-6.7-34.986-9.646-10.3-2.587-20.656-5.135-31.127-6.925-1.774-.3-3.557-.578-5.346-.775-.125-.014-.777-.164-.864-.086.446-.4.449.964.505.02.037-.618.007-1.248.01-1.868q.027-5.151.048-10.3.067-15.657.123-31.315.068-18.372.129-36.745.051-15.577.1-31.155.015-5.082.027-10.164c0-.294.189-1.566,0-1.774.329.37-.916.241.014.394a11.019,11.019,0,0,0,1.151.051c1.862.1,3.72.279,5.573.482q1.688.184,3.372.4l.809.1.546.072q.981.132,1.961.272,4.137.588,8.259,1.279,9.22,1.535,18.373,3.453c11.844,2.475,23.758,5.242,35.156,9.355q1.656.6,3.292,1.251c.275.11.548.222.821.335.384.158-.2-.091.32.135.473.206.945.414,1.414.63a34.182,34.182,0,0,1,4.629,2.518C124.954,167.263,127.361,163.107,124.8,161.4Z"/><path class="c" d="M123.506,172.509c0,12.548-.053,25.1-.089,37.646q-.075,25.824-.142,51.65-.024,10.409-.032,20.815c0,3.089,4.8,3.094,4.8,0q0-21.4.089-42.794.069-25.1.142-50.2.021-8.558.032-17.116c0-3.089-4.8-3.094-4.8,0Z"/><path class="a" d="M8.474,208.9a12.021,12.021,0,0,1,1.754-3.617c1.161-1.439,2.912-3.977,4.718-4.88,4.774-3.9,15.467-2.589,20.526-.9,3.617,1.2,8.2,3.092,10.465,6.212,2.156,2.975,2.357,6.812-2.965,7.677,2.138.978,4.26,2.282,5.262,3.938,1.845,3.05,1.077,6.81-2.423,8.356a8.3,8.3,0,0,1,1.393,1.476c2.227,3.021,2.736,8.577-3.445,9.362a4.894,4.894,0,0,1,1.14,1.81c1.037,2.85-.336,4.85-3.086,5.538-2.871.717-7.579-.7-12.415.961-6.029,2.966-11.118,1.932-15.431-.145-9.211-4.433-8.025-12.137-7.812-20.507a46.162,46.162,0,0,1,1.268-11.63C7.707,211.516,8.043,210.19,8.474,208.9Z"/><path class="c" d="M44.883,215.407c2.782-.94,4.935-2.991,4.869-6.1a10.139,10.139,0,0,0-3.781-7.072c-3.949-3.378-9.375-5.3-14.453-6.16-5.109-.865-10.8-1.161-15.639.98-4.907,2.169-8.541,7.177-10.063,12.3a45.5,45.5,0,0,0-1.833,9.4c-.239,3.008-.256,6.041-.349,9.056-.15,4.871,0,10.083,3.077,14.13,3.423,4.508,9.675,7.159,15.276,7.134a18.389,18.389,0,0,0,4.626-.629c1.811-.484,3.443-1.434,5.285-1.8,2.99-.6,6.028.079,9.032-.222,3.29-.331,6.381-2.29,6.687-5.826a7.8,7.8,0,0,0-4.81-7.564c-6.634-2.971-13.793-3.018-20.865-2.143a2.475,2.475,0,0,0-2.4,2.4,2.413,2.413,0,0,0,2.4,2.4,56.073,56.073,0,0,1,8.682-.584,31.321,31.321,0,0,1,7.585,1.4c1.5.425,3.6.843,4.343,2.41A2.01,2.01,0,0,1,42.7,240.7a2.765,2.765,0,0,1-1.812.917c-2.233.383-4.969-.147-7.356.018a18.9,18.9,0,0,0-4.309.729c-1.536.479-2.919,1.244-4.508,1.6A15.252,15.252,0,0,1,12,240.616c-2.907-2.536-3.534-5.966-3.6-9.625-.038-2.161.088-4.322.149-6.482a60.732,60.732,0,0,1,.55-8.42,41.2,41.2,0,0,1,1.915-7.195,15.5,15.5,0,0,1,3.685-5.27c2.728-2.776,6.577-3.441,10.576-3.369A33.23,33.23,0,0,1,38.48,203.2c2.166.993,4.545,2.257,5.813,4.365a4.33,4.33,0,0,1,.543,1.175,1.955,1.955,0,0,1,.126.891,2.39,2.39,0,0,1-.186.468,2.768,2.768,0,0,1-1.169.677c-2.912.983-1.663,5.621,1.276,4.629Z"/><path class="c" d="M22.246,211.822a27.971,27.971,0,0,1,8.268.422,53.016,53.016,0,0,1,8.779,2.241c2.238.79,5.076,1.774,6.611,3.689a3.343,3.343,0,0,1-.737,5.153c-2.647,1.586-.236,5.738,2.423,4.145a7.982,7.982,0,0,0,3.438-9.843c-1.422-3.634-4.876-5.524-8.3-6.947a50.176,50.176,0,0,0-10.145-2.927,36.152,36.152,0,0,0-11.609-.562,2.414,2.414,0,0,0-1.676,2.952,2.463,2.463,0,0,0,2.952,1.677Z"/><path class="c" d="M21.386,223.907c5.8-.632,11.876.386,17.557,1.555,2.726.561,5.59,1.368,6.9,4.07.87,1.8.793,3.5-1.278,4.408a2.416,2.416,0,0,0-.861,3.284,2.459,2.459,0,0,0,3.283.861c3.478-1.529,4.746-5.3,3.835-8.825-.995-3.848-4.086-6.46-7.746-7.693a55.344,55.344,0,0,0-10.329-1.979,47.761,47.761,0,0,0-11.359-.481,2.472,2.472,0,0,0-2.4,2.4,2.415,2.415,0,0,0,2.4,2.4Z"/><path class="a" d="M243.131,208.9a12.021,12.021,0,0,0-1.754-3.617c-1.161-1.439-2.913-3.977-4.718-4.88-4.774-3.9-15.467-2.589-20.526-.9-3.617,1.2-8.205,3.092-10.465,6.212-2.156,2.975-2.357,6.812,2.965,7.677-2.139.978-4.26,2.282-5.262,3.938-1.845,3.05-1.077,6.81,2.423,8.356a8.264,8.264,0,0,0-1.393,1.476c-2.227,3.021-2.736,8.577,3.444,9.362a4.905,4.905,0,0,0-1.139,1.81c-1.037,2.85.336,4.85,3.086,5.538,2.871.717,7.579-.7,12.415.961,6.028,2.966,11.118,1.932,15.431-.145,9.211-4.433,8.025-12.137,7.812-20.507a46.162,46.162,0,0,0-1.268-11.63C243.9,211.516,243.562,210.19,243.131,208.9Z"/><path class="c" d="M208,210.778a3.6,3.6,0,0,1-.971-.479c-.279-.234-.247-.2-.337-.485a1.108,1.108,0,0,1-.041-.585,8.843,8.843,0,0,1,.3-1c.884-1.989,2.806-3.28,4.655-4.277a31.562,31.562,0,0,1,11.368-3.48c3.791-.42,8.453-.593,11.7,1.443a18.958,18.958,0,0,1,4.619,4.571,16.515,16.515,0,0,1,2.331,5.8c1.385,5.1,1.383,10.266,1.545,15.512.117,3.791.239,7.692-1.817,10.861-2.186,3.371-7.037,5.414-10.976,5.587a12.988,12.988,0,0,1-3.287-.243c-1.667-.355-3.11-1.142-4.713-1.651a25.115,25.115,0,0,0-8.526-.719c-1.571.057-4.584.284-5.036-1.129-.584-1.822,1.613-3.088,3.184-3.6a33.227,33.227,0,0,1,7.967-1.762,51.257,51.257,0,0,1,9.7.533,2.412,2.412,0,0,0,2.4-2.4,2.459,2.459,0,0,0-2.4-2.4,49.574,49.574,0,0,0-10.1-.5,38.564,38.564,0,0,0-8.992,1.952c-2.775.923-5.173,2.482-6.179,5.355a6.229,6.229,0,0,0,2.4,7.493c2.479,1.589,5.467,1.3,8.264,1.216a20.8,20.8,0,0,1,4.651.242c1.842.367,3.474,1.317,5.285,1.8a20.1,20.1,0,0,0,17.014-3.629c4.245-3.242,5.81-8.019,5.987-13.2.087-2.557-.082-5.117-.149-7.672a54.985,54.985,0,0,0-1.01-10.682,31.492,31.492,0,0,0-2.7-8.141,22.875,22.875,0,0,0-2.319-3.14,16.441,16.441,0,0,0-3.377-3.313c-4.162-2.914-9.374-3.517-14.47-3.085-5.749.487-11.91,2.059-16.7,5.4-2.488,1.734-4.8,4.191-5.3,7.3-.567,3.5,1.524,6.044,4.752,7.134,2.934.99,4.192-3.644,1.276-4.629Z"/><path class="c" d="M230.635,207.193a36.152,36.152,0,0,0-11.609.562,50.2,50.2,0,0,0-10.146,2.927c-3.427,1.423-6.881,3.313-8.3,6.947a7.983,7.983,0,0,0,3.438,9.843c2.657,1.591,5.073-2.557,2.423-4.145a3.33,3.33,0,0,1-.84-5.037c1.508-1.992,4.446-3,6.714-3.8a52.992,52.992,0,0,1,8.582-2.207,28.3,28.3,0,0,1,8.465-.456,2.482,2.482,0,0,0,2.952-1.677,2.417,2.417,0,0,0-1.676-2.952Z"/><path class="c" d="M230.219,219.107a47.761,47.761,0,0,0-11.359.481,55.328,55.328,0,0,0-10.329,1.979c-3.658,1.232-6.751,3.846-7.746,7.693-.911,3.523.357,7.3,3.835,8.825a2.477,2.477,0,0,0,3.283-.861,2.418,2.418,0,0,0-.861-3.284c-2.058-.905-2.157-2.595-1.278-4.408,1.309-2.7,4.172-3.511,6.9-4.07,5.683-1.166,11.753-2.187,17.557-1.555a2.415,2.415,0,0,0,2.4-2.4,2.456,2.456,0,0,0-2.4-2.4Z"/></svg>